#!OML:ASF Y:\EmotionMaleHayes\Project 1\Capture day 1\Session 1\Male1.ASF
:FULLY-SPECIFIED
:DEGREES
205
root -1.50749 16.4483 -0.693118 -89.8622 84.7233 -99.0737
lowerback 16.4668 3.672 6.02728
upperback 3.56696 6.04752 0.236172
thorax -4.77764 2.98218 -4.3418
lowerneck -28.8076 -2.57092 -0.0226597
upperneck 13.4333 -3.47956 0.335568
head 8.82634 -1.57111 -0.409617
rclavicle 5.23798e-014 -8.74653e-015
rhumerus -43.7445 23.023 -94.9814
rradius 109.293
rwrist -19.4562
rhand -30.1903 -21.2639
rfingers 7.12502
rthumb -3.50122 -51.2149
lclavicle 5.23798e-014 -8.74653e-015
lhumerus -76.4405 -25.8203 98.6895
lradius 92.1303
lwrist 21.4821
lhand -35.6201 -31.7624
lfingers 7.12502
lthumb -8.74325 -1.9635
rfemur 11.6591 4.42385 26.9889
rtibia 59.4387
rfoot 1.45397 -5.68985
rtoes 16.7815
lfemur -35.9149 11.2852 -16.6137
ltibia 43.4733
lfoot -17.4398 1.75118
ltoes -12.4102
206
root -1.16589 16.3186 -0.70512 -99.0388 85.3757 -107.736
lowerback 16.9008 3.32703 5.37139
upperback 3.71539 5.49295 -0.0962974
thorax -4.94297 2.71713 -4.25805
lowerneck -28.43 -2.56504 0.0552906
upperneck 12.7782 -3.51413 0.480206
head 8.54026 -1.57037 -0.365493
rclavicle 4.47266e-015 1.39149e-014
rhumerus -45.1221 22.5148 -95.7992
rradius 107.727
rwrist -20.4054
rhand -29.4156 -22.1104
rfingers 7.12502
rthumb -2.75309 -52.0724
lclavicle 4.47266e-015 1.39149e-014
lhumerus -73.7547 -25.9224 98.1502
lradius 90.7424
lwrist 20.5391
lhand -35.3579 -31.324
lfingers 7.12502
lthumb -8.49013 -1.5147
rfemur 9.25783 3.67143 26.1553
rtibia 65.6957
rfoot 0.769185 -5.10827
rtoes 18.9158
lfemur -35.4046 9.43067 -17.2532
ltibia 45.5338
lfoot -18.4829 2.02947
ltoes -11.587
207
root -0.826691 16.1885 -0.712558 -110.756 86.311 -118.754
lowerback 17.5647 3.03366 4.18942
upperback 3.93363 4.91795 -0.494291
thorax -5.19121 2.44949 -3.95108
lowerneck -28.0651 -2.41381 0.270877
upperneck 12.0828 -3.36611 0.450435
head 8.23848 -1.49759 -0.376345
rclavicle 3.91109e-014 -1.69961e-014
rhumerus -46.4559 22.0467 -96.641
rradius 106.007
rwrist -21.5301
rhand -28.864 -22.5504
rfingers 7.12502
rthumb -2.22035 -52.5186
lclavicle 3.91109e-014 -1.69961e-014
lhumerus -71.0054 -25.8125 97.5349
lradius 89.5252
lwrist 19.8015
lhand -35.0902 -30.91
lfingers 7.12502
lthumb -8.23179 -1.09037
rfemur 8.65516 2.73315 24.5231
rtibia 69.1798
rfoot 1.03125 -4.50198
rtoes 19.08
lfemur -34.5236 7.82152 -18.3809
ltibia 47.3395
lfoot -19.4888 3.01322
ltoes -12.8005
208
root -0.478593 16.0511 -0.720043 -138.253 87.553 -145.586
lowerback 18.0532 2.82174 2.22675
upperback 4.19366 4.284 -0.988545
thorax -5.33853 2.16851 -3.26681
lowerneck -27.5285 -2.2392 0.290962
upperneck 11.1831 -3.11486 0.460127
head 7.84727 -1.38258 -0.325649
rclavicle 1.23246e-014 -3.26504e-014
rhumerus -47.6786 21.6377 -97.3253
rradius 104.166
rwrist -22.9708
rhand -28.1792 -23.1886
rfingers 7.12502
rthumb -1.55902 -53.1626
lclavicle 1.23246e-014 -3.26504e-014
lhumerus -68.2328 -25.5127 97.0455
lradius 88.452
lwrist 19.2953
lhand -34.9627 -30.2824
lfingers 7.12502
lthumb -8.10879 -0.457975
rfemur 7.13371 1.70936 21.9634
rtibia 73.9961
rfoot 1.79161 -3.0918
rtoes 19.3557
lfemur -33.3362 6.32507 -20.5237
ltibia 48.9445
lfoot -21.184 3.55143
ltoes -13.7902
209
root -0.124179 15.9085 -0.729618 -208.471 87.1928 -215.226
lowerback 18.3733 2.70343 -0.818495
upperback 4.47705 3.55311 -1.75654
thorax -5.38528 1.85761 -2.21761
lowerneck -26.7624 -2.18183 0.154403
upperneck 10.0498 -2.97826 0.576913
head 7.3503 -1.31787 -0.228342
rclavicle -2.36336e-014 1.69464e-014
rhumerus -48.8369 21.1939 -97.8508
rradius 102.062
rwrist -24.3294
rhand -27.8109 -23.3325
rfingers 7.12502
rthumb -1.20326 -53.3088
lclavicle -2.36336e-014 1.69464e-014
lhumerus -65.4496 -25.3418 96.7647
lradius 87.3403
lwrist 18.8195
lhand -35.1243 -29.901
lfingers 7.12502
lthumb -8.26473 -0.0827018
rfemur 5.74403 0.355119 17.7918
rtibia 78.2873
rfoot 2.81655 0.191939
rtoes 18.5551
lfemur -31.6216 4.71032 -24.1871
ltibia 49.8912
lfoot -23.151 4.06882
ltoes -15.1209
210
root 0.208357 15.7811 -0.726862 -234.298 84.824 -240.602
lowerback 19.0019 2.6525 -3.85004
upperback 4.60263 2.88573 -2.54506
thorax -5.6963 1.57995 -1.22866
lowerneck -26.252 -2.1639 0.265316
upperneck 9.23698 -2.96142 0.531522
head 6.99788 -1.31377 -0.246975
rclavicle 1.79652e-014 -1.20762e-014
rhumerus -50.1793 20.5198 -98.4613
rradius 99.8556
rwrist -25.1316
rhand -27.6794 -23.2874
rfingers 7.12502
rthumb -1.07625 -53.2644
lclavicle 1.79652e-014 -1.20762e-014
lhumerus -62.6723 -25.3493 96.5181
lradius 86.3969
lwrist 18.4904
lhand -35.585 -29.8683
lfingers 7.12502
lthumb -8.70938 -0.0680217
rfemur 3.634 -0.905604 14.0076
rtibia 83.4294
rfoot 14.8501 30.1699
rtoes 17.5341
lfemur -29.7471 3.35407 -27.6043
ltibia 50.2944
lfoot -24.9211 4.49102
ltoes -15.6665
211
root 0.530749 15.6746 -0.713998 -239.818 82.7335 -245.827
lowerback 19.7422 2.49618 -6.2542
upperback 4.65661 2.16666 -3.0515
thorax -6.07219 1.27946 -0.280089
lowerneck -26.6106 -2.17544 -0.0937427
upperneck 9.25792 -2.916 0.943354
head 7.07113 -1.25996 -0.0503038
rclavicle -3.98563e-014 4.02539e-014
rhumerus -51.5208 19.993 -98.9432
rradius 97.582
rwrist -25.2188
rhand -27.5067 -23.9173
rfingers 7.12502
rthumb -0.909469 -53.8951
lclavicle -3.98563e-014 4.02539e-014
lhumerus -59.8304 -25.2483 96.3268
lradius 85.7675
lwrist 18.4279
lhand -36.2976 -30.2744
lfingers 7.12502
lthumb -9.39695 -0.503915
rfemur 0.801627 -2.30887 11.4863
rtibia 87.3844
rfoot 37.0886 58.5829
rtoes 16.1743
lfemur -27.8377 2.08413 -29.9642
ltibia 50.346
lfoot -26.6239 4.65513
ltoes -14.7989
212
root 0.865374 15.5791 -0.720601 -244.74 80.186 -250.704
lowerback 20.0252 2.33168 -9.09477
upperback 4.79426 1.37811 -3.6493
thorax -6.05745 0.954309 0.854635
lowerneck -27.516 -2.16981 -0.926576
upperneck 9.62962 -2.75532 1.79983
head 7.35717 -1.11664 0.381337
rclavicle 5.11871e-015 4.9895e-014
rhumerus -52.6493 19.8644 -99.1564
rradius 95.1789
rwrist -24.7008
rhand -27.8059 -24.3036
rfingers 7.12502
rthumb -1.19842 -54.2799
lclavicle 5.11871e-015 4.9895e-014
lhumerus -56.8827 -25.0821 96.2241
lradius 85.4035
lwrist 18.6364
lhand -37.3206 -31.3242
lfingers 7.12502
lthumb -10.3839 -1.60063
rfemur -2.28456 -3.92272 8.053
rtibia 87.1088
rfoot 113.05 70.3877
rtoes 13.5836
lfemur -25.6989 0.883429 -33.1073
ltibia 49.826
lfoot -28.0877 5.05555
ltoes -14.6639
213
root 1.20926 15.4962 -0.7347 -247.596 77.624 -253.716
lowerback 19.9986 2.15653 -11.7606
upperback 4.93572 0.653558 -4.33988
thorax -5.80928 0.651701 1.76917
lowerneck -28.2409 -2.1442 -1.2278
upperneck 9.68919 -2.66649 2.21889
head 7.49532 -1.03147 0.579185
rclavicle 4.47266e-015 2.84262e-014
rhumerus -53.7678 19.5247 -99.3235
rradius 92.9508
rwrist -23.6161
rhand -28.3811 -25.0696
rfingers 7.12502
rthumb -1.75401 -55.0421
lclavicle 4.47266e-015 2.84262e-014
lhumerus -53.8575 -25.3846 96.0986
lradius 85.2081
lwrist 19.1313
lhand -38.3327 -31.7113
lfingers 7.12502
lthumb -11.3602 -2.03903
rfemur -5.50185 -5.6558 4.52802
rtibia 83.2859
rfoot 159.84 47.125
rtoes 11.7649
lfemur -23.6713 -0.0338953 -36.2826
ltibia 49.2053
lfoot -29.2743 5.41597
ltoes -15.5663
